<?xml version="1.0" standalone="no"?>
<!DOCTYPE svg PUBLIC "-//W3C//DTD SVG 20010904//EN"
 "http://www.w3.org/TR/2001/REC-SVG-20010904/DTD/svg10.dtd">
<svg version="1.0" xmlns="http://www.w3.org/2000/svg"
 width="2000.000000pt" height="2000.000000pt" viewBox="0 0 2000.000000 2000.000000"
 preserveAspectRatio="xMidYMid meet">
<metadata>
Created by potrace 1.14, written by Peter Selinger 2001-2017
</metadata>
<g transform="translate(0.000000,2000.000000) scale(0.100000,-0.100000)"
fill="#000000" stroke="none">
<path d="M13123 17538 c-12 -13 -40 -59 -64 -103 -47 -89 -61 -115 -89 -162
-11 -18 -17 -39 -14 -47 3 -8 186 -131 406 -272 220 -141 406 -263 413 -270 7
-8 17 -14 21 -14 19 0 529 -399 574 -451 3 -3 48 -43 100 -90 154 -136 404
-390 570 -579 719 -817 1249 -1816 1545 -2912 8 -32 21 -82 29 -110 17 -62
102 -447 111 -498 3 -19 12 -71 20 -115 7 -44 16 -96 19 -115 3 -19 8 -46 10
-60 3 -14 10 -63 16 -110 6 -47 13 -96 15 -110 2 -14 7 -50 10 -80 3 -30 8
-66 10 -80 7 -49 19 -185 30 -350 4 -58 9 -123 11 -145 2 -22 6 -173 10 -335
4 -181 10 -300 17 -308 8 -10 51 -13 183 -11 149 1 176 4 189 19 14 15 15 64
10 411 -2 217 -7 410 -9 429 -2 19 -7 80 -10 135 -4 55 -9 116 -11 135 -2 19
-6 62 -10 95 -8 84 -26 245 -30 275 -2 14 -7 45 -10 70 -98 726 -329 1528
-627 2180 -57 124 -216 436 -273 535 -31 55 -67 118 -79 140 -12 22 -72 119
-134 216 -456 719 -1010 1335 -1707 1901 -224 181 -643 479 -850 605 -11 7
-63 38 -115 70 -52 32 -99 60 -103 61 -4 2 -33 19 -64 38 -67 40 -92 42 -120
12z"/>
<path d="M11557 17514 c-3 -3 -74 -7 -159 -9 -570 -13 -688 -16 -725 -20 -24
-2 -45 0 -48 5 -3 5 -18 5 -33 1 -15 -4 -56 -6 -92 -5 -36 1 -202 5 -370 9
-167 3 -307 7 -310 7 -50 4 -60 -3 -106 -79 -25 -43 -49 -85 -55 -93 -9 -15
-40 -69 -127 -225 -57 -102 -89 -160 -142 -260 -23 -44 -59 -111 -80 -150 -57
-106 -138 -262 -235 -450 -48 -93 -100 -192 -115 -220 -15 -27 -58 -108 -95
-180 -37 -71 -80 -152 -95 -180 -15 -27 -51 -95 -80 -150 -29 -55 -74 -140
-100 -190 -185 -352 -382 -738 -632 -1240 -295 -591 -271 -545 -280 -545 -5 0
-8 -8 -8 -17 -1 -29 -153 -288 -170 -288 -8 -1 -35 7 -59 17 -36 15 -50 17
-77 8 -39 -13 -65 -45 -56 -69 8 -22 47 -58 82 -76 46 -24 50 -42 28 -113 -27
-87 -94 -216 -194 -368 -62 -96 -86 -114 -115 -88 -10 9 -19 25 -19 36 0 10
-3 18 -8 18 -4 0 -13 12 -19 28 -7 15 -31 47 -53 72 -22 25 -40 55 -40 68 0
13 -9 37 -21 53 -16 22 -19 38 -15 67 9 57 -10 73 -67 57 -22 -6 -25 -10 -16
-22 9 -10 4 -10 -22 3 -19 10 -39 20 -46 23 -15 8 -156 103 -163 110 -12 13
-70 51 -79 51 -16 0 -20 28 -5 34 10 4 13 13 9 25 -3 12 0 23 9 28 12 7 12 10
-2 23 -9 8 -18 14 -19 12 -3 -3 -67 7 -97 15 -15 4 -18 1 -14 -19 3 -16 0 -25
-8 -25 -7 0 -10 5 -7 11 4 6 -1 5 -10 -3 -9 -7 -17 -10 -17 -6 0 4 -6 3 -12
-2 -7 -6 -26 -11 -43 -11 -42 -1 -63 -6 -75 -18 -15 -15 -21 -52 -9 -59 5 -4
9 -17 9 -31 0 -13 4 -24 8 -24 5 0 16 -16 25 -35 29 -61 104 -168 155 -222
l49 -52 74 2 c45 2 87 10 108 20 49 24 67 21 95 -16 31 -40 36 -83 9 -72 -60
26 -105 -14 -86 -79 10 -35 34 -44 70 -25 27 14 45 3 48 -29 0 -11 8 -27 17
-36 18 -17 33 -22 23 -7 -3 5 -1 12 4 15 4 3 8 -2 8 -12 -1 -26 14 -72 23 -72
5 0 15 -6 22 -12 20 -18 50 -38 70 -44 22 -8 28 -37 16 -82 -12 -44 -48 -112
-60 -112 -4 0 -8 -5 -8 -11 0 -6 -85 -154 -189 -328 -284 -475 -487 -830 -668
-1171 -96 -179 -138 -259 -258 -495 -70 -137 -151 -295 -180 -350 -29 -55 -92
-176 -140 -270 -138 -267 -502 -951 -678 -1275 -167 -308 -181 -335 -267 -490
-29 -52 -65 -117 -80 -145 -102 -185 -154 -279 -335 -600 -112 -198 -212 -376
-224 -395 -11 -19 -24 -42 -28 -50 -4 -8 -19 -36 -35 -61 -32 -53 -36 -86 -10
-92 9 -3 145 -3 302 -2 157 1 697 6 1200 10 604 4 919 10 927 17 11 9 236 390
488 827 42 73 85 147 95 165 11 17 39 67 65 111 25 44 57 100 71 125 15 25 38
65 52 90 14 25 33 57 43 72 11 14 19 29 19 32 0 4 10 23 23 44 13 20 37 62 54
92 17 30 90 159 163 285 73 127 142 246 153 265 10 19 65 115 121 213 55 97
106 185 111 195 11 18 77 137 105 187 9 17 42 73 72 125 30 52 67 118 82 145
16 28 129 229 252 447 123 219 224 404 224 412 0 34 -23 36 -466 38 -432 3
-439 3 -438 23 0 11 43 88 96 170 97 153 227 380 281 493 16 34 33 62 38 62 4
0 12 15 17 33 11 37 449 800 463 805 5 2 9 9 9 16 0 19 120 236 131 236 5 0 9
7 9 15 0 16 28 76 39 85 3 3 15 22 26 44 11 21 28 43 38 50 9 6 17 17 17 24 0
20 59 132 70 132 6 0 10 8 10 17 0 9 31 65 69 123 38 58 81 132 96 165 48 111
77 164 115 215 20 27 43 72 50 98 17 68 27 83 73 117 23 17 52 49 65 72 28 51
52 139 41 150 -15 15 2 48 34 68 40 26 333 451 447 649 10 17 47 80 84 139 36
60 66 111 66 113 0 2 20 38 45 80 25 41 45 77 45 78 0 2 32 59 71 127 39 68
84 147 99 174 15 28 91 160 169 294 77 134 141 246 141 248 0 3 15 28 34 56
18 29 66 108 106 177 40 69 156 262 258 430 102 168 190 315 196 327 6 13 14
23 19 23 4 0 7 4 7 9 0 7 249 408 414 666 32 50 63 99 69 109 7 11 16 25 20
30 4 6 28 42 53 81 25 38 52 78 61 87 9 10 14 18 12 19 -2 0 -13 2 -24 3 -11
2 -38 8 -60 14 -61 15 -102 22 -108 16z m-2318 -3281 c-2 -39 2 -77 9 -90 25
-45 7 -81 -38 -79 -24 1 -21 168 3 207 11 16 21 29 24 29 2 0 3 -30 2 -67z
m16 -733 c4 -6 -6 -10 -24 -10 -16 0 -33 5 -36 10 -4 6 6 10 24 10 16 0 33 -4
36 -10z m-2862 -313 c-3 -5 5 -7 18 -3 13 3 18 3 11 0 -6 -3 -10 -9 -8 -12 2
-4 -6 -7 -19 -7 -16 0 -21 4 -17 15 5 13 4 13 -14 0 -17 -14 -18 -13 -7 1 13
17 46 22 36 6z m-59 -5 c2 -4 1 -14 -5 -22 -6 -11 -9 -11 -9 -2 0 10 -4 10
-19 0 -11 -7 -17 -17 -13 -23 3 -5 -2 -3 -12 4 -16 13 -17 13 -14 -1 1 -9 -1
-18 -6 -20 -5 -2 -10 5 -12 15 -1 9 2 17 7 17 6 0 8 4 4 9 -3 5 -1 12 4 15 5
4 12 2 16 -4 3 -5 11 -10 16 -10 6 0 7 5 3 12 -4 7 -3 8 4 4 7 -4 12 -2 12 3
0 13 17 15 24 3z m1781 -43 c-7 -11 -35 -12 -35 -1 0 4 9 8 20 9 11 1 18 -2
15 -8z m-78 -26 c5 3 10 0 10 -8 0 -8 -4 -15 -9 -15 -5 0 -6 -5 -2 -12 4 -6 3
-8 -3 -5 -14 9 -20 -10 -18 -55 2 -33 0 -36 -15 -28 -10 5 -21 6 -25 2 -5 -4
-5 -2 -1 5 3 6 2 14 -2 17 -5 3 -7 18 -4 32 4 21 2 25 -8 19 -10 -6 -12 -4 -7
9 5 13 3 15 -11 8 -9 -5 -24 -8 -32 -7 -8 0 -18 -4 -22 -9 -4 -6 -10 -8 -13
-4 -10 9 29 45 43 40 7 -2 12 1 12 6 0 6 8 8 18 6 9 -3 28 -1 42 4 16 6 27 6
31 -1 4 -5 11 -7 16 -4z m653 -98 c0 -12 -19 -12 -23 0 -4 9 -1 12 9 8 7 -3
14 -7 14 -8z m-30 -9 c0 -2 -7 -6 -15 -10 -8 -3 -15 -1 -15 4 0 6 7 10 15 10
8 0 15 -2 15 -4z m-1820 -152 c0 -8 -19 -13 -24 -6 -3 5 1 9 9 9 8 0 15 -2 15
-3z m947 -441 c-12 -11 -37 6 -31 21 5 14 8 14 21 0 9 -8 13 -18 10 -21z
m-171 -338 c19 -46 18 -55 -6 -55 -27 0 -70 47 -70 76 0 48 53 33 76 -21z"/>
<path d="M5515 14703 c-11 -3 -24 -9 -29 -14 -6 -5 -17 -9 -26 -9 -9 0 -33 -9
-55 -20 -22 -11 -45 -20 -52 -20 -7 0 -13 -4 -13 -9 0 -5 -14 -13 -32 -16 -38
-9 -148 -113 -148 -140 1 -51 41 -63 133 -40 55 14 126 55 165 94 9 10 54 46
100 80 98 74 104 95 27 98 -28 0 -59 -1 -70 -4z"/>
<path d="M5773 14689 c-24 -9 -31 -29 -10 -29 8 0 7 -4 -3 -10 -10 -7 -12 -12
-4 -17 6 -5 17 -18 23 -31 12 -22 14 -23 31 -7 10 9 22 31 25 47 10 45 -16 64
-62 47z"/>
<path d="M6360 14571 c-14 -27 -13 -46 5 -61 12 -10 20 -9 40 4 27 18 32 45
13 64 -18 18 -46 14 -58 -7z"/>
<path d="M2982 14115 c-39 -33 -83 -140 -75 -186 6 -44 9 -46 41 -29 56 31
114 199 79 228 -12 10 -20 8 -45 -13z"/>
<path d="M10768 14023 c-18 -22 -41 -62 -103 -178 -27 -49 -71 -130 -98 -180
-28 -49 -62 -112 -77 -140 -107 -199 -517 -930 -743 -1325 -184 -323 -280
-480 -365 -599 -10 -15 -8 -26 14 -67 89 -167 128 -240 134 -249 4 -5 35 -64
70 -130 34 -66 66 -124 70 -130 5 -5 26 -44 48 -85 82 -156 125 -235 132 -245
4 -5 38 -68 75 -140 37 -71 71 -134 75 -140 4 -5 29 -50 55 -100 26 -49 95
-178 153 -285 57 -107 125 -233 150 -280 69 -129 116 -218 157 -295 21 -38 60
-113 88 -165 27 -52 62 -117 77 -145 15 -27 63 -117 105 -200 43 -82 94 -181
115 -220 21 -38 68 -128 105 -200 37 -71 89 -170 115 -220 26 -49 70 -133 97
-185 28 -52 74 -140 103 -195 29 -55 96 -179 148 -275 52 -96 110 -204 130
-240 19 -36 50 -91 68 -123 19 -32 34 -59 34 -61 0 -2 52 -94 115 -206 63
-112 115 -204 115 -206 0 -2 17 -32 38 -66 21 -35 41 -67 43 -73 2 -5 30 -54
62 -108 80 -133 160 -303 197 -416 38 -116 34 -135 -17 -91 -35 31 -38 32
-110 27 -122 -8 -225 -74 -290 -184 -14 -24 -34 -48 -44 -53 -19 -11 -21 -8
-55 54 -21 40 -45 47 -91 26 -70 -31 -95 -109 -48 -155 37 -38 73 -31 105 23
9 16 12 15 29 -6 14 -16 17 -29 12 -50 -4 -15 -3 -45 2 -66 8 -32 8 -41 -4
-44 -25 -8 -84 -77 -86 -100 -2 -30 13 -28 34 5 44 68 59 75 88 44 20 -23 23
-91 7 -133 -14 -34 -27 -35 -47 -4 -15 23 -17 23 -62 10 -59 -18 -107 -18
-122 0 -19 23 -59 25 -85 5 -13 -10 -36 -43 -51 -74 -37 -73 -84 -127 -143
-163 -35 -21 -53 -41 -66 -73 -11 -24 -30 -68 -43 -98 -12 -29 -23 -58 -23
-63 0 -5 16 -18 36 -30 l36 -21 -23 -13 c-20 -10 -28 -9 -49 6 -22 16 -29 16
-51 5 -46 -24 -89 -97 -91 -152 0 -5 -4 -16 -9 -25 -7 -12 -4 -20 8 -28 13 -8
14 -13 5 -16 -6 -3 -10 -9 -8 -13 3 -4 -15 -20 -39 -36 -25 -15 -45 -32 -45
-37 0 -5 -4 -7 -8 -4 -4 2 -14 0 -22 -5 -12 -8 -11 -9 4 -7 14 2 22 -5 28 -29
5 -18 12 -32 16 -30 4 1 15 -5 23 -13 15 -13 15 -17 2 -37 -18 -27 -35 -29
-53 -8 -7 8 -16 13 -19 10 -4 -2 -8 2 -9 10 -1 8 -3 22 -4 30 -1 8 -4 15 -8
15 -3 0 -6 9 -6 19 0 11 4 17 8 14 5 -2 7 7 4 21 -3 15 -1 24 4 21 4 -3 6 19
4 48 -4 68 -13 104 -22 90 -5 -7 -16 -4 -35 11 -26 21 -27 24 -13 50 17 33 4
66 -27 66 -39 0 -120 -251 -91 -280 16 -16 40 -2 60 36 10 19 22 34 25 34 10
0 1 -93 -12 -127 -17 -44 -39 -63 -75 -63 -42 0 -53 17 -89 133 -28 88 -45
105 -65 67 -12 -22 -7 -211 6 -245 8 -19 7 -19 -19 -2 -29 19 -67 23 -67 6 0
-5 -4 -7 -10 -4 -5 3 -10 22 -10 41 0 19 -6 45 -14 57 -8 12 -45 92 -82 177
-98 225 -117 249 -89 115 14 -71 14 -79 0 -96 -15 -16 -15 -19 4 -38 22 -22
29 -61 10 -61 -6 0 -40 28 -75 62 -35 33 -64 57 -64 51 0 -5 19 -39 41 -74 49
-75 55 -123 28 -212 -17 -58 -17 -60 2 -80 10 -11 19 -26 19 -33 0 -6 8 -15
17 -18 13 -5 14 -9 4 -19 -10 -9 -18 -6 -38 18 -62 74 -74 85 -88 85 -23 0
-18 -35 15 -110 33 -76 47 -130 34 -130 -16 1 -44 27 -44 41 0 8 -9 20 -20 27
-11 7 -20 17 -20 23 0 5 -9 20 -21 32 l-21 22 5 -35 c5 -40 38 -120 49 -120
20 0 51 -88 52 -145 1 -48 6 -65 23 -82 14 -14 20 -29 16 -42 -3 -12 2 -32 11
-46 24 -36 37 -73 27 -79 -4 -3 -19 6 -34 20 -40 36 -126 84 -132 74 -4 -6 -1
-10 6 -10 7 0 10 -3 6 -6 -3 -3 8 -19 25 -36 33 -32 32 -49 -2 -25 -23 16 -50
60 -50 82 0 7 -4 15 -9 17 -5 2 -28 51 -51 110 -23 59 -46 110 -52 114 -13 9
-8 -82 7 -122 8 -20 9 -37 3 -48 -19 -33 -12 -77 15 -102 18 -16 27 -35 27
-54 0 -38 -4 -38 -28 3 -10 18 -43 59 -72 90 -130 140 -250 329 -293 462 -26
80 -43 184 -42 263 1 80 -6 82 -28 7 -48 -168 31 -359 322 -773 28 -40 51 -75
51 -78 0 -10 -61 5 -77 17 -7 6 -13 28 -13 49 0 49 -8 54 -34 24 l-21 -25 -70
51 c-86 63 -103 73 -189 101 -47 14 -97 22 -155 23 l-86 2 -1 30 c0 32 -24 94
-36 94 -5 0 -7 3 -6 8 4 11 -45 112 -53 112 -11 0 -8 -69 3 -76 4 -3 8 -14 8
-25 0 -13 4 -18 12 -13 6 4 8 3 5 -3 -8 -13 12 -85 21 -79 4 2 7 -8 6 -22 -1
-23 -5 -27 -30 -27 -16 0 -35 4 -42 9 -8 6 -16 6 -20 0 -4 -5 -16 -10 -27 -10
-11 -1 -39 -5 -62 -8 -25 -4 -51 -2 -62 4 -21 11 -55 105 -45 122 4 6 2 13 -3
17 -9 6 -73 108 -73 116 0 8 -68 104 -121 170 -150 190 -382 343 -636 420 -65
20 -132 40 -149 45 -17 6 -60 12 -95 14 -35 2 -80 7 -99 10 -87 14 -112 15
-131 6 -26 -15 -16 -31 86 -145 193 -213 386 -371 634 -518 98 -59 179 -131
203 -182 5 -11 18 -36 28 -55 11 -19 19 -42 20 -51 0 -24 -28 -31 -39 -11 -9
16 -10 16 -16 -1 -8 -20 41 -168 88 -267 107 -225 269 -413 483 -563 79 -55
154 -127 154 -147 0 -20 -38 -27 -125 -23 -151 6 -398 46 -438 70 -4 2 -38 6
-75 9 -37 2 -80 6 -97 8 -16 3 -61 8 -100 12 -38 3 -74 8 -78 11 -4 2 -20 6
-35 8 -48 6 -370 110 -620 199 -99 36 -341 133 -487 196 -131 56 -615 293
-655 320 -14 10 -61 36 -105 60 -44 23 -87 49 -96 56 -8 8 -19 14 -23 14 -23
0 -457 283 -651 425 -134 97 -392 300 -486 382 -239 206 -543 501 -710 688
-25 28 -62 68 -81 90 -77 85 -192 221 -253 300 -46 59 -83 95 -97 95 -7 0 -29
-15 -49 -33 -19 -17 -55 -50 -80 -71 -111 -98 -149 -139 -149 -159 0 -43 33
-92 185 -276 159 -192 313 -359 550 -596 312 -311 578 -544 890 -776 55 -41
104 -78 110 -82 5 -4 42 -30 80 -57 39 -27 75 -53 80 -57 14 -11 164 -110 270
-178 418 -269 869 -492 1350 -667 129 -47 333 -117 357 -123 9 -2 81 -24 160
-49 159 -50 308 -95 335 -101 90 -21 361 -102 370 -111 6 -6 26 -48 44 -94 18
-45 48 -107 66 -137 18 -31 33 -57 33 -60 0 -12 102 -136 160 -193 83 -82 141
-123 164 -114 30 11 74 122 92 229 8 44 7 185 -2 225 -9 45 -7 71 4 82 6 6 41
9 78 8 38 -2 197 -3 354 -3 315 -1 485 6 715 28 28 2 77 7 110 10 33 3 94 10
135 15 41 6 94 12 118 15 110 13 129 15 162 20 85 11 127 16 150 20 14 2 49 7
79 10 30 4 62 8 72 10 34 7 45 -13 80 -137 18 -66 33 -60 24 10 -3 31 -7 77
-8 102 l-2 45 295 76 c290 74 663 179 849 239 114 37 139 38 146 7 2 -12 7
-118 10 -234 3 -117 7 -239 10 -270 4 -54 18 -229 19 -245 1 -5 6 -8 11 -8 6
0 13 30 16 67 6 78 3 612 -5 690 -3 37 -1 57 9 66 11 11 172 68 234 83 9 2 50
13 91 24 79 22 142 32 200 34 30 1 35 -2 38 -24 5 -39 25 -47 104 -43 68 4 76
2 121 -27 31 -19 47 -36 44 -44 -4 -9 3 -16 17 -20 12 -3 28 -17 36 -31 15
-28 30 -33 30 -11 0 8 5 18 12 22 6 4 8 3 5 -4 -14 -22 4 -41 35 -37 38 5 46
12 50 50 2 25 10 32 41 43 52 16 127 26 214 26 40 1 73 4 73 8 0 4 23 26 52
48 45 36 53 39 61 25 10 -19 1 -31 -28 -37 -24 -4 -26 -27 -3 -41 19 -13 53 2
94 40 20 19 22 26 14 48 -14 37 -5 45 43 39 40 -6 45 -4 74 30 28 31 31 39 23
68 -6 17 -23 45 -38 62 -58 62 -90 136 -59 136 18 0 65 52 52 56 -79 29 -116
72 -120 139 -2 26 -9 51 -16 56 -21 12 -48 -5 -67 -41 -19 -38 -64 -62 -83
-43 -8 8 -4 19 15 40 34 37 33 53 -3 53 -20 0 -32 -6 -36 -19 -10 -32 -42 -54
-70 -47 -14 4 -25 12 -25 20 0 34 312 236 364 236 10 0 24 -16 33 -37 14 -35
14 -41 0 -65 -9 -16 -12 -30 -6 -33 5 -4 9 0 9 7 0 8 5 6 11 -5 7 -12 7 -22
-1 -35 -9 -14 -10 -14 -5 6 7 23 6 23 -17 8 -20 -13 -25 -14 -25 -2 0 8 7 12
16 9 14 -4 14 -3 1 5 -28 20 -43 -15 -16 -37 11 -9 15 -9 18 0 2 7 4 -4 4 -25
0 -20 5 -41 11 -47 16 -16 60 -3 89 26 27 27 25 34 -33 165 -38 86 -34 109 33
175 79 78 112 82 115 15 4 -105 63 -267 61 -170 0 12 -14 269 -16 304 -3 44
-21 22 204 256 88 91 174 181 192 201 61 66 165 184 194 219 16 19 37 44 48
55 14 15 171 211 345 431 5 6 44 60 87 120 43 60 89 124 103 143 118 163 396
611 520 841 63 118 248 489 295 592 128 286 290 693 281 709 -3 5 -33 -20 -65
-55 -73 -77 -183 -155 -293 -206 -68 -31 -84 -44 -96 -71 -8 -19 -41 -90 -73
-157 -32 -68 -58 -125 -58 -127 0 -15 -125 -258 -134 -261 -13 -5 -145 -7
-242 -5 -62 2 -200 -28 -318 -69 -33 -11 -67 -20 -77 -20 -25 0 -52 55 -47 96
2 19 0 34 -4 34 -14 0 -108 97 -108 112 0 7 9 19 21 26 18 12 20 20 15 69 -6
66 -12 76 -22 37 -22 -91 -74 -149 -91 -100 -11 34 -20 91 -22 143 -1 7 -16
23 -34 35 -26 18 -33 30 -32 51 2 36 19 47 60 40 39 -6 48 5 51 64 2 24 6 48
9 54 7 11 -19 56 -44 77 -9 7 -35 22 -58 33 -45 21 -56 32 -61 64 -3 20 -51
97 -64 103 -11 5 -10 32 1 32 5 0 14 -7 21 -15 13 -15 40 -21 40 -8 0 3 -7 15
-17 25 -14 15 -14 22 -4 42 15 27 6 66 -14 66 -19 0 -41 -44 -53 -105 -18 -86
-38 -130 -62 -133 -48 -8 -59 35 -21 84 19 24 22 36 16 69 -4 22 -8 58 -8 79
-2 34 -6 41 -29 47 -17 4 -33 2 -45 -7 -20 -15 -53 -19 -53 -6 0 14 53 59 78
67 22 6 31 25 12 25 -15 0 -12 33 5 57 12 16 12 22 2 26 -8 4 -7 6 3 6 24 1
100 93 100 120 l0 25 -21 -22 c-11 -12 -17 -27 -13 -34 4 -6 3 -8 -4 -4 -5 3
-19 -9 -30 -26 -41 -66 -102 -106 -132 -88 -9 6 -9 13 -1 29 9 17 9 21 -2 21
-8 0 -20 -7 -27 -15 -24 -29 -99 -57 -101 -37 -6 66 -15 82 -47 82 -36 0 -87
-48 -103 -98 -6 -20 -15 -41 -19 -45 -4 -5 -1 -22 7 -38 12 -23 12 -36 3 -63
-18 -56 -50 -54 -113 8 -23 22 -45 35 -58 33 -34 -3 -34 20 0 28 16 3 32 12
34 19 4 9 18 12 42 9 22 -2 34 0 31 6 -4 5 -15 8 -26 6 -13 -3 -18 0 -14 7 5
7 2 9 -9 5 -9 -3 -19 -1 -23 5 -4 7 -3 8 4 4 7 -4 12 -2 12 3 0 6 -8 11 -17
12 -41 2 -118 25 -146 44 -14 10 -15 14 -4 23 7 7 22 13 33 15 51 10 64 29 48
71 -7 19 -40 21 -51 3 -17 -29 -60 -47 -107 -46 -26 1 -52 -3 -58 -9 -15 -15
-38 -3 -38 20 0 11 9 31 20 45 33 42 21 95 -17 74 -15 -8 -25 -7 -39 4 -29 22
-39 18 -13 -6 l24 -20 -25 12 c-42 20 -87 58 -87 73 0 13 3 13 21 1 11 -8 29
-12 41 -9 17 4 24 0 28 -15 5 -21 27 -30 27 -10 0 5 -4 8 -9 5 -5 -3 -11 6
-14 20 -3 16 0 23 7 21 6 -3 10 -10 8 -17 -2 -10 0 -11 10 -2 11 9 14 6 13
-11 0 -12 -4 -29 -9 -37 -8 -13 -7 -13 6 -2 9 7 29 10 46 7 65 -11 105 29 84
85 -8 20 -5 31 14 53 28 33 30 50 8 71 -26 27 -47 20 -42 -13 2 -17 0 -27 -5
-24 -5 3 -7 -3 -5 -13 2 -11 -7 -30 -19 -44 -25 -27 -31 -46 -10 -34 6 4 9 3
4 -1 -12 -14 -46 -13 -58 2 -6 7 -16 10 -21 7 -5 -3 -9 0 -7 7 5 38 -4 51 -46
71 l-45 22 6 53 c9 68 -12 114 -78 174 l-51 46 22 22 22 22 -56 79 c-30 44
-55 86 -55 95 0 8 -4 15 -9 15 -11 0 -191 253 -210 295 -7 17 -17 37 -22 45
-35 60 -73 137 -70 144 1 5 -2 12 -7 15 -5 3 -42 71 -82 151 -88 175 -237 450
-314 579 -31 52 -56 100 -56 107 0 7 -4 14 -9 16 -12 4 -81 144 -81 163 0 8
-4 15 -9 15 -8 0 -26 31 -139 240 -19 36 -45 83 -57 105 -12 22 -36 65 -52 95
-17 30 -71 129 -120 220 -50 91 -106 194 -125 230 -19 36 -56 103 -82 149 -25
46 -46 90 -46 97 0 8 -4 14 -8 14 -4 0 -15 15 -23 33 -9 17 -34 69 -57 114
-23 44 -42 88 -42 96 0 9 -4 17 -8 19 -5 2 -33 50 -62 108 -52 102 -68 130
-137 237 -18 28 -33 56 -33 62 0 6 -4 11 -10 11 -5 0 -13 12 -16 28 -4 15 -12
34 -19 42 -18 20 -115 201 -115 212 0 6 -9 21 -20 35 -11 14 -20 34 -20 44 0
11 -4 19 -9 19 -4 0 -86 145 -181 323 -197 366 -212 393 -250 462 -16 28 -46
84 -68 125 -137 261 -195 363 -208 367 -6 2 -17 -4 -26 -14z m2807 -5103 c-3
-5 1 -10 7 -13 7 -2 9 -8 5 -13 -5 -5 -16 1 -27 13 -9 12 -21 19 -25 15 -5 -4
-5 -2 -2 5 4 6 16 9 27 6 11 -3 18 -9 15 -13z m-245 -220 c15 -15 19 -30 17
-62 -4 -50 5 -76 50 -139 18 -26 33 -51 33 -58 0 -6 5 -11 10 -11 6 0 10 -7
10 -15 0 -8 4 -15 9 -15 5 0 11 -9 14 -20 8 -31 -11 -24 -52 19 -62 64 -131
218 -131 291 0 35 12 38 40 10z m90 -81 c15 -28 5 -23 -15 7 -9 15 -12 23 -6
20 6 -4 16 -16 21 -27z m209 -25 c21 -10 30 -21 27 -31 -3 -8 -2 -12 3 -9 5 3
11 -3 14 -14 7 -27 -7 -25 -36 4 -18 18 -27 22 -36 13 -8 -8 -11 -8 -11 2 0 7
-4 9 -10 6 -13 -8 -13 1 0 26 13 23 10 23 49 3z m297 -240 c1 -9 0 -13 -4 -10
-3 4 -7 14 -8 22 -1 9 0 13 4 10 3 -4 7 -14 8 -22z m654 -373 c0 -15 -25 -31
-47 -31 -16 0 -23 6 -23 19 0 15 7 19 35 19 19 0 35 -3 35 -7z m-326 -90 c15
-16 15 -19 2 -24 -9 -4 -18 -1 -22 5 -4 7 -3 8 4 4 16 -9 15 7 0 22 -7 7 -10
12 -7 12 3 0 14 -8 23 -19z m70 -23 c-3 -4 0 -8 6 -8 6 0 8 -4 5 -10 -3 -5 -2
-10 3 -10 21 0 23 -35 3 -51 -28 -23 -58 -13 -77 23 -16 31 -12 48 12 48 8 0
13 4 10 8 -2 4 6 8 19 8 13 0 21 -4 19 -8z m299 -15 c2 -10 -3 -25 -10 -34 -8
-10 -15 -39 -16 -65 -2 -41 -5 -49 -23 -52 -11 -2 -30 6 -43 17 -26 22 -24 26
25 76 15 15 20 30 17 48 -5 24 -2 27 20 27 16 0 27 -6 30 -17z m210 -187 c8
-19 -17 -53 -27 -37 -4 7 -5 19 -2 27 3 9 1 12 -4 9 -6 -3 -10 -1 -10 4 0 16
37 13 43 -3z m-83 -37 c0 -5 5 -7 10 -4 9 5 12 -1 9 -21 0 -4 5 -10 12 -15 22
-13 -3 -26 -54 -28 -9 -1 -23 -13 -29 -27 -11 -23 -10 -29 10 -44 27 -22 28
-46 3 -59 -16 -9 -20 -5 -30 31 -7 23 -14 49 -16 59 -2 10 -8 26 -13 35 -13
24 -3 59 21 71 29 14 77 16 77 2z m198 -66 c46 -34 92 -83 92 -97 0 -18 -13
-31 -45 -45 -16 -8 -32 -15 -35 -16 -45 -11 -49 -16 -47 -69 2 -40 -1 -52 -10
-49 -11 4 -19 65 -14 97 1 4 -3 14 -8 20 -8 9 -5 24 9 51 24 47 25 62 5 81
-20 20 -19 54 1 54 8 0 32 -12 52 -27z m35 -368 c-10 -13 -20 -18 -22 -12 -2
5 4 16 12 22 9 7 13 16 9 20 -4 5 -1 5 6 1 9 -6 8 -13 -5 -31z m-87 -115 c4
-25 7 -52 8 -61 0 -9 5 -15 12 -12 13 5 24 -24 29 -74 4 -39 -7 -43 -23 -7 -8
16 -17 22 -25 18 -8 -5 -8 -2 2 9 9 11 10 17 2 17 -6 0 -10 6 -8 13 1 6 -4 11
-12 9 -12 -3 -12 0 -1 12 7 9 8 16 3 16 -8 0 -10 45 -4 104 2 19 10 -1 17 -44z
m-101 10 c8 0 19 -9 25 -19 13 -26 13 -34 -2 -25 -10 6 -10 5 -1 -7 7 -8 14
-30 16 -49 2 -19 9 -48 16 -63 6 -16 11 -29 11 -31 0 -6 -40 0 -41 6 -3 19 -5
24 -10 33 -3 6 -4 20 -3 33 0 12 -3 22 -7 22 -5 0 -9 7 -9 15 0 8 -5 15 -11
15 -5 0 -7 5 -4 10 4 6 1 17 -5 25 -7 8 -9 15 -6 15 4 0 2 8 -3 19 -12 22 -1
38 11 16 5 -8 15 -15 23 -15z m110 -170 c3 -5 1 -10 -4 -10 -6 0 -11 5 -11 10
0 6 2 10 4 10 3 0 8 -4 11 -10z m331 -585 c8 -33 1 -40 -25 -25 -17 9 -19 15
-11 30 15 27 28 25 36 -5z m-2897 -334 c19 -12 22 -38 6 -45 -16 -6 -58 32
-50 45 8 11 26 11 44 0z m-1212 -1146 c0 -8 -4 -12 -9 -9 -4 3 -8 -2 -8 -10 0
-9 -6 -16 -12 -17 -10 0 -10 -2 -1 -6 9 -3 9 -8 2 -16 -5 -7 -17 -21 -25 -32
-13 -17 -15 -17 -10 -2 3 11 2 16 -4 12 -6 -3 -10 -18 -10 -32 0 -21 -2 -23
-15 -13 -13 11 -12 16 8 40 12 15 25 25 30 23 4 -2 7 1 7 7 0 11 37 70 44 70
1 0 3 -7 3 -15z m78 -55 c-3 -5 -14 -10 -23 -9 -14 0 -13 2 3 9 27 11 27 11
20 0z m-364 -29 l24 -19 -29 -27 c-22 -20 -31 -24 -40 -14 -8 9 -8 10 1 5 6
-3 14 -2 18 4 3 5 -1 10 -10 10 -12 0 -14 4 -5 19 13 26 13 34 -2 25 -7 -4 -8
-3 -4 4 10 17 20 15 47 -7z m-560 -821 c5 0 9 -8 9 -18 0 -10 5 -23 10 -28 7
-7 6 -11 -4 -11 -8 0 -13 4 -10 9 3 4 0 8 -7 8 -7 0 -9 3 -6 7 4 3 1 16 -7 29
-8 12 -12 25 -8 29 4 4 8 0 10 -9 2 -9 8 -16 13 -16z m3339 -453 c0 -15 -54
-49 -63 -41 -7 7 10 25 38 42 25 14 25 14 25 -1z m174 -68 c14 -21 11 -48 -7
-60 -16 -11 -11 -63 8 -74 50 -30 52 -34 12 -35 -96 0 -134 65 -90 158 18 38
54 43 77 11z m332 -120 c7 -12 -12 -29 -33 -29 -7 0 -13 9 -13 20 0 22 34 28
46 9z m-208 -19 c-7 -11 -23 -20 -36 -20 -19 0 -21 2 -10 14 7 8 16 12 20 10
4 -2 9 0 13 6 3 5 10 10 16 10 5 0 4 -9 -3 -20z"/>
<path d="M14300 7860 c0 -5 5 -10 11 -10 5 0 7 5 4 10 -3 6 -8 10 -11 10 -2 0
-4 -4 -4 -10z"/>
<path d="M10825 4760 c3 -6 1 -10 -6 -10 -7 0 -10 -3 -6 -6 3 -3 13 -2 22 4
16 8 16 9 1 15 -10 4 -15 3 -11 -3z"/>
<path d="M6510 13745 c-26 -69 -31 -141 -12 -185 8 -19 19 -46 25 -60 5 -14
16 -36 24 -50 8 -14 17 -33 20 -42 3 -10 10 -18 15 -18 5 0 6 -4 3 -10 -3 -5
-1 -10 4 -10 6 0 10 -3 9 -7 -2 -7 29 -60 42 -73 3 -3 11 -17 19 -32 7 -14 26
-40 41 -57 15 -16 38 -44 50 -61 12 -16 26 -27 32 -24 6 4 8 2 5 -3 -7 -11 41
-49 49 -40 10 9 -9 86 -19 80 -6 -3 -7 -1 -3 6 4 6 2 19 -6 28 -9 12 -9 15 -1
9 9 -5 11 -2 7 8 -3 9 -9 16 -13 16 -3 0 -7 16 -9 36 -1 20 -5 41 -9 48 -4 6
-8 16 -10 21 -1 6 -4 21 -7 35 -3 14 -9 40 -12 58 -4 19 -18 47 -33 62 -40 44
-52 60 -46 60 3 0 -2 13 -11 29 -10 17 -21 28 -25 25 -4 -2 -11 1 -15 7 -4 8
-3 9 4 5 7 -4 12 -4 12 0 0 11 -74 149 -85 156 -19 14 -36 8 -45 -17z m44 -3
c3 -5 -1 -9 -9 -9 -8 0 -12 4 -9 9 3 4 7 8 9 8 2 0 6 -4 9 -8z m-19 -61 c-9
-8 -36 -10 -30 -2 2 4 11 8 20 8 8 0 13 -3 10 -6z m51 -17 c1 -9 0 -13 -4 -10
-3 4 -7 14 -8 22 -1 9 0 13 4 10 3 -4 7 -14 8 -22z m-20 -46 c3 -4 -1 -5 -10
-4 -8 1 -18 5 -22 8 -3 4 1 5 10 4 8 -1 18 -5 22 -8z m39 -37 c-9 -8 -36 -10
-30 -2 2 4 11 8 20 8 8 0 13 -3 10 -6z m22 -76 c0 -8 -4 -12 -9 -9 -5 3 -6 10
-3 15 9 13 12 11 12 -6z m-60 -20 c0 -8 -4 -15 -9 -15 -10 0 -11 14 -1 23 9
10 10 9 10 -8z m98 -24 c-9 -8 -36 -10 -30 -2 2 4 11 8 20 8 8 0 13 -3 10 -6z
m20 -40 c-9 -8 -36 -10 -30 -2 2 4 11 8 20 8 8 0 13 -3 10 -6z m61 -43 c3 -4
-1 -5 -10 -4 -8 1 -18 5 -22 8 -3 4 1 5 10 4 8 -1 18 -5 22 -8z m-20 -40 c3
-4 -1 -5 -10 -4 -8 1 -18 5 -22 8 -3 4 1 5 10 4 8 -1 18 -5 22 -8z m-21 -78
c3 -5 1 -10 -4 -10 -6 0 -11 5 -11 10 0 6 2 10 4 10 3 0 8 -4 11 -10z m38 -55
c-7 -21 -12 -19 -10 4 0 11 5 18 9 15 4 -3 5 -11 1 -19z"/>
<path d="M6575 13180 c3 -5 8 -10 11 -10 2 0 4 5 4 10 0 6 -5 10 -11 10 -5 0
-7 -4 -4 -10z"/>
<path d="M6003 12537 c-16 -7 -23 -19 -23 -38 0 -53 73 -64 86 -14 10 41 -25
70 -63 52z"/>
<path d="M4941 12207 c-49 -24 -160 -131 -199 -190 -28 -42 -20 -59 22 -50 41
10 222 103 254 132 41 37 68 97 51 117 -17 21 -78 17 -128 -9z"/>
<path d="M5465 11527 c-30 -36 -201 -271 -246 -337 -64 -96 -159 -242 -159
-245 0 -2 -14 -27 -31 -56 -66 -112 -148 -332 -136 -364 8 -19 41 -6 114 47
123 89 200 191 303 403 84 173 132 294 176 448 42 145 36 172 -21 104z"/>
<path d="M2480 10971 c-14 -28 -12 -77 4 -90 19 -16 51 4 70 44 13 26 13 32
-1 47 -21 24 -60 23 -73 -1z"/>
<path d="M5271 10114 c-34 -43 -26 -104 14 -104 28 0 53 28 61 68 12 60 -38
84 -75 36z"/>
<path d="M15213 9878 c-4 -7 -8 -17 -9 -23 -8 -49 -46 -247 -53 -275 -8 -28
-28 -128 -45 -220 -12 -64 -20 -91 -27 -96 -5 -3 -7 -10 -3 -15 3 -6 7 -31 9
-57 9 -121 40 -235 93 -337 46 -89 170 -215 268 -273 110 -66 120 -67 188 -21
45 30 62 37 76 29 45 -24 50 -141 11 -243 -6 -15 -12 -59 -13 -98 -3 -73 5
-88 45 -89 28 0 19 -27 -19 -56 -19 -15 -44 -45 -55 -66 -11 -21 -24 -38 -29
-38 -13 0 -23 44 -15 69 3 12 2 21 -3 21 -13 0 -22 50 -12 74 4 12 11 49 15
83 8 72 11 67 -120 170 -44 34 -101 82 -127 106 -26 24 -62 56 -81 70 -20 15
-41 33 -49 40 -24 24 -125 77 -147 77 -32 0 -36 -23 -21 -114 7 -44 14 -115
15 -156 1 -41 6 -87 9 -102 6 -20 3 -28 -10 -36 -19 -11 -21 -32 -10 -157 16
-180 83 -273 266 -369 88 -46 130 -51 176 -20 42 29 50 30 63 5 12 -22 0 -51
-64 -151 -36 -55 -68 -126 -99 -213 -11 -32 -28 -13 -50 54 -38 119 -102 202
-225 297 -29 22 -81 30 -81 13 0 -6 26 -30 58 -54 32 -25 63 -51 70 -59 16
-19 18 -68 7 -153 -15 -117 -10 -364 9 -382 3 -3 -2 -23 -11 -44 -14 -36 -14
-41 1 -63 21 -32 101 -49 224 -48 86 0 100 3 169 36 222 106 402 279 518 500
51 96 56 127 23 144 -32 17 -153 20 -218 7 -108 -23 -178 -66 -267 -165 -30
-33 -59 -60 -64 -60 -15 0 -10 58 7 92 9 18 13 41 10 57 -17 73 -17 80 3 100
12 12 35 21 54 22 79 2 172 26 257 67 107 52 187 135 245 256 45 93 54 133 34
153 -8 8 -3 24 21 58 32 47 100 185 100 204 0 23 -32 41 -67 37 -37 -5 -144
-44 -153 -56 -8 -11 -69 -41 -91 -45 -28 -6 -18 7 80 101 196 188 227 307 207
794 -9 212 -20 227 -105 143 -26 -27 -93 -92 -149 -146 -101 -98 -189 -214
-213 -282 -7 -19 -17 -35 -21 -35 -4 0 -8 -8 -8 -17 0 -10 -18 -65 -39 -122
-34 -92 -40 -102 -50 -83 -15 27 -41 126 -48 182 -3 25 -7 52 -9 60 -1 8 -3
51 -3 94 l-1 80 -46 43 c-26 24 -45 43 -43 44 2 0 12 2 23 4 39 7 42 22 17 93
-60 173 -178 372 -296 500 -66 72 -87 83 -102 60z m746 -1565 c-18 -23 -63
-62 -67 -58 -4 4 62 72 72 74 5 0 2 -7 -5 -16z m-794 -50 c40 -62 132 -179
192 -244 34 -38 63 -71 63 -74 0 -11 -105 72 -151 119 -82 84 -164 226 -131
226 5 0 18 -12 27 -27z"/>
<path d="M10593 8503 c-5 -75 -5 -111 0 -143 20 -122 54 -186 123 -229 50 -32
71 -31 105 5 28 30 52 119 39 144 -6 10 -7 25 -4 33 11 30 -75 145 -130 174
-24 13 -112 43 -126 43 -3 0 -6 -12 -7 -27z"/>
<path d="M14145 8490 c-31 -35 -18 -123 36 -237 26 -55 34 -63 58 -63 23 0 32
8 56 51 l27 51 -26 25 c-20 18 -25 30 -20 49 5 21 1 26 -29 39 -40 17 -46 24
-53 62 -9 49 -21 54 -49 23z"/>
<path d="M13780 8340 c0 -5 7 -7 15 -4 8 4 15 8 15 10 0 2 -7 4 -15 4 -8 0
-15 -4 -15 -10z"/>
<path d="M14220 8070 c0 -11 20 -24 43 -27 14 -2 16 1 8 15 -10 18 -51 28 -51
12z m40 -6 c0 -8 -19 -13 -24 -6 -3 5 1 9 9 9 8 0 15 -2 15 -3z"/>
<path d="M15012 7812 c-18 -12 -32 -70 -23 -95 5 -12 17 -30 27 -39 26 -22 74
-41 74 -27 0 5 -8 12 -17 16 -54 19 -69 68 -32 102 34 31 9 67 -29 43z"/>
<path d="M10762 7606 c-12 -26 1 -62 30 -80 13 -8 22 -6 36 8 20 17 22 43 7
79 -11 26 -59 22 -73 -7z"/>
<path d="M15067 7344 c-8 -8 13 -64 33 -91 20 -26 35 -16 43 28 6 30 0 42 -30
58 -24 12 -37 14 -46 5z"/>
<path d="M10357 7322 c-26 -28 -32 -78 -14 -106 20 -29 49 -25 72 11 44 67 -7
151 -58 95z"/>
<path d="M8177 5903 c-13 -12 -7 -60 8 -73 22 -18 45 -5 45 28 0 39 -32 67
-53 45z"/>
<path d="M10632 5655 c-92 -52 -154 -163 -113 -204 41 -41 136 1 206 93 80
105 20 176 -93 111z"/>
<path d="M11056 5464 c-15 -39 -4 -126 20 -153 10 -11 33 38 34 70 0 71 -37
129 -54 83z"/>
<path d="M9790 5306 c0 -8 -5 -18 -12 -22 -12 -7 -25 -9 -163 -19 -93 -7 -130
-25 -157 -76 -29 -57 -36 -119 -20 -180 5 -20 8 -50 7 -68 -2 -17 1 -31 6 -31
5 0 9 -6 9 -13 0 -7 20 -41 43 -77 24 -36 48 -78 54 -95 l9 -29 76 75 c81 81
116 133 160 241 31 78 59 216 51 251 -11 44 -63 79 -63 43z"/>
<path d="M10973 5086 c-22 -19 -25 -27 -16 -37 17 -17 80 -3 93 22 24 44 -31
54 -77 15z"/>
<path d="M10366 4926 c5 -13 4 -17 -4 -12 -7 4 -12 2 -12 -3 0 -6 5 -11 10
-11 6 0 10 -5 10 -11 0 -5 -6 -7 -12 -3 -9 5 -9 2 1 -9 7 -9 18 -17 23 -17 11
0 0 60 -14 75 -6 6 -7 3 -2 -9z"/>
<path d="M10847 4843 c-9 -8 12 -33 27 -33 6 0 3 5 -7 11 -9 6 -15 14 -12 20
7 10 2 12 -8 2z"/>
<path d="M10392 4815 c-1 -14 3 -25 8 -25 6 0 9 -3 9 -7 -1 -5 -1 -15 0 -23 1
-13 3 -13 10 0 6 8 7 19 3 25 -3 5 -7 16 -9 24 -4 26 -19 31 -21 6z"/>
<path d="M10836 4805 c10 -8 23 -15 28 -15 6 0 1 7 -10 15 -10 8 -23 15 -28
15 -6 0 -1 -7 10 -15z"/>
<path d="M10991 4714 c0 -11 3 -14 6 -6 3 7 2 16 -1 19 -3 4 -6 -2 -5 -13z"/>
<path d="M10959 4673 c-13 -17 -13 -17 6 -3 11 8 22 16 24 17 2 2 0 3 -6 3 -6
0 -17 -8 -24 -17z"/>
<path d="M10917 4559 c4 -13 8 -18 11 -10 2 7 -1 18 -6 23 -8 8 -9 4 -5 -13z"/>
<path d="M10900 4535 c7 -8 17 -15 22 -15 5 0 3 7 -6 15 -8 8 -18 15 -22 15
-3 0 -1 -7 6 -15z"/>
<path d="M10948 4533 c6 -2 9 -10 6 -15 -4 -7 -2 -8 5 -4 13 9 5 26 -12 25 -9
0 -8 -2 1 -6z"/>
<path d="M10925 4500 c3 -5 8 -10 11 -10 2 0 4 5 4 10 0 6 -5 10 -11 10 -5 0
-7 -4 -4 -10z"/>
</g>
</svg>
